<svg xmlns="http://www.w3.org/2000/svg" width="256" height="256"><path fill="#1976D2" fill-opacity=".016" fill-rule="evenodd" d="M0 128.004v128.004l128.25-.254 128.25-.254.254-127.75L257.008 0H0zm.485.496c0 70.4.119 99.053.265 63.672.146-35.38.146-92.98 0-128C.604 29.153.485 58.1.485 128.5"/><path fill="#1976D2" fill-opacity=".263" fill-rule="evenodd" d="M0 128.004v128.004l128.25-.254 128.25-.254.254-127.75L257.008 0H0zm.485.496c0 70.4.119 99.053.265 63.672.146-35.38.146-92.98 0-128C.604 29.153.485 58.1.485 128.5m112.346-89.477c-36.471 6.155-66.346 35.47-73.253 71.88C37.188 123.499 37.011 123 43.885 123h5.885l.714-5.714c4.212-33.713 33.089-62.59 66.802-66.802L123 49.77v-5.885c0-5.782-.048-5.883-2.75-5.767-1.513.064-4.851.472-7.419.905M133 43.77v6l5.714.714c12.001 1.499 23.931 6.314 34.884 14.078l6.099 4.323 4.26-4.341 4.259-4.34-7.358-5.231c-12.586-8.947-27.577-14.833-42.108-16.531L133 37.77zm58.309 28.458-4.15 4.272 4.013 5.5c9.766 13.385 13.843 25.432 14.564 43.037.436 10.637.191 13.814-1.617 20.964-2.392 9.46-6.421 18.671-11.215 25.638l-3.22 4.681 4.408 3.772 4.408 3.773 2.224-2.683c3.948-4.76 11.102-19.562 13.892-28.744 2.42-7.96 2.724-10.578 2.776-23.938.063-16.31-1.076-22.608-6.446-35.63-2.556-6.198-9.026-16.932-13.648-22.642l-1.839-2.271zm-90.227 15.14C99.937 89.22 99 91.02 99 91.368c0 .348 4.388.642 9.75.654 7.396.017 10.757.479 13.919 1.915 3.566 1.619 6.331 4.457 6.331 6.497 0 .311-5.737.572-12.75.578l-12.75.013-2.25 3.473c-1.237 1.911-2.25 3.705-2.25 3.988 0 .283 7.249.514 16.108.514h16.109l-.675 2.689c-2.014 8.024-8.978 12.31-21.244 13.075l-8.298.518v3.391c0 2.882 2.402 6.383 16.025 23.359L133.051 172h6.533c3.594 0 6.321-.344 6.061-.765-.26-.421-7.471-9.517-16.024-20.213-15.773-19.724-16.403-20.97-10.621-21.007 1.375-.009 5.233-1.31 8.573-2.89 6.783-3.209 11.866-8.576 13.614-14.375 1.112-3.692 1.209-3.75 6.221-3.762 4.708-.012 5.262-.275 7.342-3.486 1.238-1.911 2.25-3.705 2.25-3.988 0-.283-3.262-.514-7.25-.515l-7.25-.001-2.084-4.499L138.332 92h6.783c6.517 0 6.883-.131 9.334-3.344 1.403-1.84 2.551-3.64 2.551-4 0-.361-12.113-.656-26.918-.656h-26.919zM38 134.816c0 8.146 4.707 23.697 10.649 35.184 8.74 16.894 21.524 29.413 38.851 38.045 14.941 7.443 22.938 9.274 40.5 9.274 17.111 0 25.24-1.786 39.5-8.681 8.465-4.093 23.5-14.721 23.5-16.612 0-.473-1.87-2.414-4.157-4.313l-4.156-3.453-5.976 4.816c-13.405 10.802-27.252 15.894-45.211 16.627-13.321.543-21.984-.799-32.457-5.03-25.879-10.452-45.205-35.112-48.559-61.959L49.77 133h-5.885c-5.02 0-5.885.267-5.885 1.816"/><path fill="#1976D2" fill-opacity=".119" fill-rule="evenodd" d="M0 128.004v128.004l128.25-.254 128.25-.254.254-127.75L257.008 0H0zm.485.496c0 70.4.119 99.053.265 63.672.146-35.38.146-92.98 0-128C.604 29.153.485 58.1.485 128.5M108.5 39.479c-33.592 7.392-60.37 33.824-68.462 67.576-1.113 4.645-2.027 10.133-2.031 12.195L38 123H49.909l.597-3.75c1.546-9.721 3.955-17.49 7.986-25.75 11.561-23.695 32.389-38.431 60.758-42.988l3.75-.603V38l-4.25.079c-2.338.044-6.95.674-10.25 1.4m24.5 4.476v5.954l3.75.603c14.735 2.367 28.16 7.679 37.509 14.842 2.617 2.005 5.113 3.646 5.547 3.646.433 0 2.567-1.838 4.741-4.084l3.953-4.084-4-3.505c-11.296-9.898-34.417-19.248-47.75-19.31L133 38zm58.094 28.45-4.269 4.349 3.664 4.8c5.096 6.676 10.091 16.949 12.717 26.155 3.152 11.052 3.151 29.533-.002 40.59-2.285 8.01-6.455 17.102-10.984 23.945l-2.567 3.879 4.239 4.189 4.24 4.188 3.008-3.5c3.949-4.595 12.279-21.784 14.538-30 1.378-5.009 1.792-10.285 1.805-23 .015-14.195-.298-17.588-2.241-24.291-2.541-8.765-7.675-19.499-13.273-27.749-5.794-8.541-5.937-8.587-10.875-3.555M100.929 87.25l-3.084 4.25 10.827.552c5.959.304 11.952 1.147 13.328 1.875 3.073 1.626 7 5.131 7 6.247 0 .454-5.834.826-12.964.826h-12.964l-2.549 3.75-2.55 3.75 16.013.275 16.014.275v2.398c0 1.319-1.219 3.847-2.709 5.618-4.108 4.882-9.484 6.886-18.541 6.912L101 124v4.373c0 4.15.823 5.403 16.096 24.5L133.192 173h6.904c3.797 0 6.904-.239 6.904-.532 0-.292-7.24-9.552-16.088-20.578-8.849-11.026-15.936-20.17-15.75-20.321.186-.151 2.536-.812 5.222-1.47 10.368-2.538 18.365-8.834 20.896-16.452 1.351-4.068 1.473-4.153 6.448-4.446 4.666-.275 5.28-.614 7.686-4.25l2.614-3.951h-14.987l-2.021-3.96c-1.111-2.178-2.02-4.203-2.02-4.5 0-.297 3.09-.54 6.867-.54h6.867l2.633-3.979c1.448-2.188 2.633-4.213 2.633-4.5 0-.286-12.147-.521-26.994-.521h-26.993zm-62.922 49.5c.019 10.119 7.411 30.67 15.081 41.923 7.918 11.619 21.872 23.821 34.412 30.092 12.036 6.019 21.792 8.438 36.249 8.99 14.022.535 20.925-.31 32.251-3.947 11.911-3.826 26.603-12.4 32.954-19.231l2.454-2.64-4.087-4.086-4.086-4.087-6.744 5.169c-8.49 6.508-18.193 11.418-28.2 14.273-11.119 3.172-29.526 3.153-40.734-.042-30.994-8.834-51.661-32.895-57.045-66.414l-.603-3.75H38z"/><path fill="#1976D2" fill-opacity=".257" fill-rule="evenodd" d="M0 128.004v128.004l128.25-.254 128.25-.254.254-127.75L257.008 0H0zm.485.496c0 70.4.119 99.053.265 63.672.146-35.38.146-92.98 0-128C.604 29.153.485 58.1.485 128.5m111.148-89.947c-39.888 7.926-69.265 39.551-74.031 79.697l-.564 4.75H51v-3.34c0-6.114 3.874-18.598 8.668-27.934 6.704-13.054 19.004-25.354 32.058-32.058C101.062 54.874 113.546 51 119.66 51H123v-7c0-8.072.54-7.813-11.367-5.447M133 43.966V51h3.34c9.451 0 27.798 7.207 38.27 15.034l5.11 3.819 4.709-4.781 4.709-4.781-6.883-5.102c-12.307-9.123-28.57-15.624-44.005-17.589l-5.25-.669zm57.318 28.187-4.152 4.152 3.832 5.098c10.01 13.315 15.156 28.889 15.23 46.097.071 16.502-3.836 30.082-12.331 42.864-2.143 3.225-3.897 5.967-3.897 6.093 0 .127 2.228 2.108 4.951 4.404l4.95 4.175 4.174-6.146c5.802-8.545 10.545-19.22 13.145-29.589 1.767-7.045 2.19-11.494 2.12-22.301-.103-16.083-2.082-24.772-8.769-38.5-4.432-9.097-12.219-20.414-14.086-20.47-.558-.016-2.883 1.839-5.167 4.123m-89.685 14.826C99.185 89.167 98 91.192 98 91.479c0 .286 2.813.524 6.25.527 8.835.008 17.82 1.656 20.682 3.792 4.985 3.722 3.932 4.202-9.216 4.202h-12.45l-2.633 3.979c-1.448 2.188-2.633 4.438-2.633 5 0 .652 5.776 1.021 16 1.021 17.675 0 17.8.055 13.75 6.015-3.438 5.059-8.872 7.368-18.75 7.969l-8.5.516-.304 3.642c-.281 3.368.921 5.186 16 24.204l16.304 20.562 7.25.046c3.988.025 7.25-.308 7.25-.74 0-.433-7.246-9.769-16.102-20.748l-16.103-19.961 4.083-.697c10.109-1.726 18.584-7.806 22.024-15.801 2.125-4.94 2.213-5.007 6.62-5.007 4.087 0 4.72-.352 7.472-4.15 1.653-2.283 3.006-4.533 3.006-5 0-.468-3.488-.855-7.75-.86l-7.75-.01-1.676-3.99-1.675-3.99h6.889c6.836 0 6.91-.029 9.426-3.732 1.395-2.053 2.536-4.078 2.536-4.5 0-.422-12.315-.768-27.367-.768h-27.367zm-63.024 45.844c-.279.453-.067 3.938.472 7.745 5.229 36.923 33.346 67.587 69.457 75.749 16.809 3.799 31.99 3.069 48.916-2.353 10.104-3.237 23.414-10.75 31.046-17.525l5-4.439-4.998-4.392-4.998-4.393-3.809 3.441c-13.263 11.983-31.238 18.565-50.695 18.565-11.558 0-20.48-1.714-30.189-5.801-23.737-9.99-42.117-33.023-45.916-57.538-.629-4.06-1.299-7.944-1.488-8.632-.39-1.416-11.948-1.801-12.798-.427"/></svg>